<svg xmlns="http://www.w3.org/2000/svg" width="94.84" height="95.678" viewBox="0 0 94.84 95.678"><g transform="translate(23.471 271.115)"><path d="M0,0H93.311V95.678H0ZM0,0H93.311V95.678H0Z" transform="translate(-21.941 -271.115)" fill="none"/><path d="M67.152,27.578,37.724,57.786,21.693,41.376l-6.3,6.463L37.724,70.758,73.449,34.087ZM46.655,2C22.006,2,2,22.536,2,47.839S22.006,93.678,46.655,93.678,91.311,73.142,91.311,47.839,71.305,2,46.655,2Zm0,82.51c-19.738,0-35.724-16.41-35.724-36.671S26.918,11.168,46.655,11.168,82.38,27.578,82.38,47.839,66.393,84.51,46.655,84.51Z" transform="translate(-25.471 -271.115)"/></g></svg>