<svg xmlns="http://www.w3.org/2000/svg" width="28.294" height="26.855" viewBox="0 0 28.294 26.855"><path d="M8.288,20.284a2.289,2.289,0,1,0,0,4.571,2.29,2.29,0,1,0,0-4.571ZM1,2V4.285H3.429L7.8,12.959l-1.64,2.8a2.109,2.109,0,0,0-.3,1.1,2.368,2.368,0,0,0,2.429,2.285H22.865V16.856H8.8a.292.292,0,0,1-.3-.286l.036-.137L9.624,14.57h9.05A2.445,2.445,0,0,0,20.8,13.393l4.349-7.416a1.064,1.064,0,0,0,.146-.549,1.184,1.184,0,0,0-1.215-1.143H6.114L4.972,2H1ZM20.435,20.284a2.29,2.29,0,1,0,2.429,2.285A2.357,2.357,0,0,0,20.435,20.284Z"/><path d="M0,0H28.294V26.855H0Z" fill="none"/></svg>