<svg xmlns="http://www.w3.org/2000/svg" width="31.229" height="27.052" viewBox="0 0 31.229 27.052"><g transform="translate(119.77)"><path d="M0,0H31.15V25.046H0Z" transform="translate(-119.692)" fill="none"/><path d="M16.222,4.5A16.391,16.391,0,0,0,1,15.269,16.391,16.391,0,0,0,16.222,26.039,16.391,16.391,0,0,0,31.444,15.269,16.391,16.391,0,0,0,16.222,4.5Zm0,17.949A7.056,7.056,0,0,1,9.3,15.269a7.056,7.056,0,0,1,6.919-7.18,7.056,7.056,0,0,1,6.919,7.18A7.056,7.056,0,0,1,16.222,22.449Zm0-11.487a4.226,4.226,0,0,0-4.151,4.308,4.154,4.154,0,1,0,8.3,0A4.226,4.226,0,0,0,16.222,10.962Z" transform="translate(-120.77 1.013)" fill="#fff"/></g></svg>