<svg xmlns="http://www.w3.org/2000/svg" width="37.596" height="31.367" viewBox="0 0 37.596 31.367"><g transform="translate(26.785 4.492)"><path d="M0,0H34.914V30H0Z" transform="translate(-26.785 -3.808)" fill="none"/><path d="M25.977,3a9.774,9.774,0,0,0-7.441,3.573A9.774,9.774,0,0,0,11.095,3,9.162,9.162,0,0,0,2,12.4c0,6.461,5.622,11.726,14.138,19.726l2.4,2.239,2.4-2.256C29.45,24.128,35.072,18.863,35.072,12.4A9.162,9.162,0,0,0,25.977,3ZM18.7,29.581l-.165.171-.165-.171C10.5,22.213,5.307,17.342,5.307,12.4a5.749,5.749,0,0,1,5.788-5.983A6.465,6.465,0,0,1,17,10.453H20.09a6.425,6.425,0,0,1,5.887-4.034A5.749,5.749,0,0,1,31.765,12.4C31.765,17.342,26.572,22.213,18.7,29.581Z" transform="translate(-24.261 -7.492)" fill="#fff"/></g></svg>