<svg xmlns="http://www.w3.org/2000/svg" width="30.443" height="31.201" viewBox="0 0 30.443 31.201"><path d="M15.221,6.755A3,3,0,0,1,18.167,9.8a2.947,2.947,0,1,1-5.891,0,3,3,0,0,1,2.946-3.045m0,13.05c4.166,0,8.556,2.117,8.556,3.045v1.6H6.665v-1.6c0-.928,4.39-3.045,8.556-3.045M15.221,4A5.706,5.706,0,0,0,9.611,9.8a5.706,5.706,0,0,0,5.611,5.8,5.706,5.706,0,0,0,5.611-5.8A5.706,5.706,0,0,0,15.221,4Zm0,13.05C11.476,17.05,4,18.993,4,22.85V27.2H26.443V22.85C26.443,18.993,18.967,17.05,15.221,17.05Z"/><path d="M0,0H30.443V31.2H0Z" fill="none"/></svg>