<svg xmlns="http://www.w3.org/2000/svg" width="56" height="57" viewBox="0 0 56 57"><path d="M28,57a27.4,27.4,0,0,1-10.9-2.24,27.885,27.885,0,0,1-8.9-6.108,28.438,28.438,0,0,1-6-9.059,29.065,29.065,0,0,1,0-22.187,28.439,28.439,0,0,1,6-9.059A27.885,27.885,0,0,1,17.1,2.24a27.638,27.638,0,0,1,21.8,0,27.884,27.884,0,0,1,8.9,6.108,28.439,28.439,0,0,1,6,9.059,29.065,29.065,0,0,1,0,22.187,28.439,28.439,0,0,1-6,9.059,27.885,27.885,0,0,1-8.9,6.108A27.4,27.4,0,0,1,28,57ZM21.466,24.409v5.344h3.149v15.5h6.3V29.752h4.205l.558-5.344H30.918l.007-2.674c0-1.367.1-2.141,2.1-2.141h2.628V14.25H31.446c-2.455,0-4.192.6-5.309,1.841a7.363,7.363,0,0,0-1.521,5.11v3.208Z" fill="#833"/></svg>