<svg xmlns="http://www.w3.org/2000/svg" width="56" height="59" viewBox="0 0 56 59"><path d="M28,59a26.609,26.609,0,0,1-10.9-2.318A27.875,27.875,0,0,1,8.2,50.36a29.537,29.537,0,0,1-6-9.377,31.061,31.061,0,0,1,0-22.965,29.537,29.537,0,0,1,6-9.377,27.874,27.874,0,0,1,8.9-6.322,26.778,26.778,0,0,1,21.8,0A27.874,27.874,0,0,1,47.8,8.64a29.538,29.538,0,0,1,6,9.377,31.062,31.062,0,0,1,0,22.965,29.538,29.538,0,0,1-6,9.377,27.875,27.875,0,0,1-8.9,6.322A26.607,26.607,0,0,1,28,59Zm0-45.234-.647,0c-3.428,0-3.971.019-5.508.093a10.55,10.55,0,0,0-3.625.731,7.281,7.281,0,0,0-2.646,1.814,7.773,7.773,0,0,0-1.723,2.787,12.1,12.1,0,0,0-.694,3.819c-.073,1.717-.09,2.282-.09,6.488s.017,4.769.09,6.486a12.222,12.222,0,0,0,.694,3.819,7.783,7.783,0,0,0,1.722,2.787,7.306,7.306,0,0,0,2.645,1.816,10.565,10.565,0,0,0,3.625.73c1.607.077,2.14.1,6.157.1s4.55-.018,6.156-.1a10.57,10.57,0,0,0,3.627-.73,7.3,7.3,0,0,0,2.644-1.816,7.773,7.773,0,0,0,1.723-2.787,12.285,12.285,0,0,0,.694-3.819c.073-1.717.09-2.282.09-6.486s-.017-4.77-.09-6.488a12.268,12.268,0,0,0-.694-3.818,7.768,7.768,0,0,0-1.723-2.788,7.279,7.279,0,0,0-2.645-1.814,10.591,10.591,0,0,0-3.628-.731C32.548,13.784,32.016,13.766,28,13.766Z" fill="#833"/><path d="M12.242,25.793c-3.973,0-4.448-.016-6.034-.092a7.917,7.917,0,0,1-2.773-.543,4.616,4.616,0,0,1-1.717-1.177A4.892,4.892,0,0,1,.6,22.174a9.091,9.091,0,0,1-.514-2.92C.015,17.6,0,17.105,0,12.894S.015,8.189.086,6.539A9.112,9.112,0,0,1,.6,3.617,4.885,4.885,0,0,1,1.718,1.809,4.632,4.632,0,0,1,3.435.631,7.917,7.917,0,0,1,6.208.088C7.6.022,8.126,0,10.9,0c.128,0,.267,0,.388,0h.95c4.02,0,4.487.016,6.034.09a7.9,7.9,0,0,1,2.773.542,4.6,4.6,0,0,1,1.716,1.177,4.929,4.929,0,0,1,1.118,1.809,9.16,9.16,0,0,1,.514,2.92c.071,1.651.086,2.148.086,6.357s-.015,4.705-.086,6.355a9.159,9.159,0,0,1-.514,2.92,4.9,4.9,0,0,1-1.118,1.808,4.581,4.581,0,0,1-1.716,1.176,7.86,7.86,0,0,1-2.773.543C16.691,25.777,16.217,25.793,12.242,25.793Zm0-20.971A7.891,7.891,0,0,0,4.574,12.9a7.89,7.89,0,0,0,7.668,8.078A7.89,7.89,0,0,0,19.91,12.9,7.891,7.891,0,0,0,12.242,4.822Zm7.972-2.207,0,0A1.842,1.842,0,0,0,18.421,4.5a1.795,1.795,0,1,0,3.585,0A1.844,1.844,0,0,0,20.214,2.615Z" transform="translate(15.759 16.598)" fill="#833"/><path d="M4.978,0A5.116,5.116,0,0,1,9.956,5.244a5.117,5.117,0,0,1-4.978,5.244A5.116,5.116,0,0,1,0,5.244,5.116,5.116,0,0,1,4.978,0Z" transform="translate(23.024 24.256)" fill="#833"/></svg>