<svg xmlns="http://www.w3.org/2000/svg" width="32.403" height="31.746" viewBox="0 0 32.403 31.746"><path d="M0,0H32.4V31.746H0Z" fill="none"/><g transform="translate(2 2.51)"><path d="M30.021,11.848H23.4L17.348,2.611A1.364,1.364,0,0,0,16.2,2.02a1.343,1.343,0,0,0-1.147.605L9,11.848H2.382A1.4,1.4,0,0,0,1,13.257a1.207,1.207,0,0,0,.055.38L4.565,26.69a2.757,2.757,0,0,0,2.653,2.056H25.184a2.786,2.786,0,0,0,2.667-2.056l3.51-13.053.041-.38A1.4,1.4,0,0,0,30.021,11.848ZM16.2,5.934l3.869,5.914H12.332Zm8.983,19.995-17.951.014L4.192,14.665H28.224Z" transform="translate(-1 -2.02)" fill="#fff"/><path d="M12,13a2,2,0,1,0,2,2A2.006,2.006,0,0,0,12,13Z" transform="translate(3.201 3.657)" fill="#fff"/></g></svg>