<svg xmlns="http://www.w3.org/2000/svg" width="56" height="55" viewBox="0 0 56 55"><path d="M28,55a28.264,28.264,0,0,1-10.9-2.161,27.941,27.941,0,0,1-8.9-5.893,27.386,27.386,0,0,1-6-8.741A27.137,27.137,0,0,1,2.2,16.8a27.386,27.386,0,0,1,6-8.741,27.94,27.94,0,0,1,8.9-5.894,28.563,28.563,0,0,1,21.8,0,27.94,27.94,0,0,1,8.9,5.894,27.387,27.387,0,0,1,6,8.741,27.137,27.137,0,0,1,0,21.408,27.387,27.387,0,0,1-6,8.741,27.941,27.941,0,0,1-8.9,5.893A28.261,28.261,0,0,1,28,55ZM13.065,22.58A4.621,4.621,0,0,0,8.4,27.142a4.526,4.526,0,0,0,2.129,3.823,7.911,7.911,0,0,0-.1,1.242c0,6.486,8.055,11.764,17.955,11.764S46.34,38.693,46.34,32.206a8,8,0,0,0-.086-1.153,4.563,4.563,0,0,0,2.28-3.912,4.619,4.619,0,0,0-4.665-4.561A4.715,4.715,0,0,0,40.8,23.718a23.236,23.236,0,0,0-11.066-3.239l2.25-6.955,6.139,1.414a3.724,3.724,0,0,0,1.172,2.587,3.885,3.885,0,0,0,2.688,1.068,3.782,3.782,0,1,0,0-7.562,3.893,3.893,0,0,0-3.5,2.184l-6.9-1.587a.918.918,0,0,0-.206-.023.89.89,0,0,0-.856.614l-2.664,8.233a23.569,23.569,0,0,0-11.787,3.207A4.719,4.719,0,0,0,13.065,22.58Z" fill="#833"/><path d="M3.451,4.9A11.078,11.078,0,0,0,0,.454,2.891,2.891,0,0,1,1.558,0,2.84,2.84,0,0,1,4.426,2.8a2.772,2.772,0,0,1-.976,2.1Z" transform="translate(42.311 22.962)" fill="#833"/><path d="M2.071,0a2.05,2.05,0,0,1,2.07,2.025,2.05,2.05,0,0,1-2.07,2.024A2.05,2.05,0,0,1,0,2.025,2.05,2.05,0,0,1,2.071,0Z" transform="translate(39.91 11.413)" fill="#833"/><path d="M16.158,20.013C7.249,20.013,0,15.525,0,10.007c0-.185.009-.374.028-.577a6.551,6.551,0,0,1,.4-1.716A9.159,9.159,0,0,1,3.466,3.825,14.182,14.182,0,0,1,4.956,2.8,22.169,22.169,0,0,1,16.158,0,22.035,22.035,0,0,1,27.487,2.88a13.746,13.746,0,0,1,1.487,1.043,9.073,9.073,0,0,1,2.917,3.811,6.483,6.483,0,0,1,.4,1.719c.018.209.026.385.026.554C32.317,15.525,25.068,20.013,16.158,20.013Zm.081-2.388.011,0,.011,0c3.008,0,5.137-.651,6.508-1.989a.864.864,0,0,0,0-1.242.914.914,0,0,0-1.272,0c-1.018.992-2.731,1.475-5.236,1.475h-.043c-2.508,0-4.221-.482-5.236-1.475a.912.912,0,0,0-1.27,0,.864.864,0,0,0,0,1.242c1.37,1.339,3.5,1.99,6.507,1.99l.01,0ZM10.249,5.168A2.793,2.793,0,0,0,7.463,7.892a2.765,2.765,0,1,0,2.786-2.725Zm12.024,0a2.794,2.794,0,0,0-2.79,2.724,2.768,2.768,0,1,0,2.79-2.724Z" transform="translate(12.362 22.962)" fill="#833"/><path d="M0,2.8A2.84,2.84,0,0,1,2.868,0,2.9,2.9,0,0,1,4.33.4,11.18,11.18,0,0,0,.856,4.8,2.761,2.761,0,0,1,0,2.8Z" transform="translate(10.197 22.962)" fill="#833"/></svg>